<mxfile host="app.diagrams.net" modified="2023-10-16T10:16:48.663Z" agent="Mozilla/5.0 (Windows NT 10.0; Win64; x64) AppleWebKit/537.36 (KHTML, like Gecko) Chrome/109.0.0.0 Safari/537.36" version="21.8.0" etag="gd6-frGXFxIp7Bctx3Ux" type="github">
  <diagram name="第 1 页" id="1od7duMtSNXrJUyxN8oi">
    <mxGraphModel>
      <root>
        <mxCell id="0" />
        <mxCell id="1" parent="0" />
      </root>
    </mxGraphModel>
  </diagram>
</mxfile>
